<mxfile host="app.diagrams.net" agent="Mozilla/5.0 (X11; Linux x86_64; rv:140.0) Gecko/20100101 Firefox/140.0" version="28.0.6">
  <diagram name="Page-1" id="zDdUZ-FA3EZwhz1xp4En">
    <mxGraphModel dx="1678" dy="1073" grid="1" gridSize="10" guides="1" tooltips="1" connect="1" arrows="1" fold="1" page="1" pageScale="1" pageWidth="1169" pageHeight="827" math="0" shadow="0">
      <root>
        <mxCell id="0" />
        <mxCell id="1" parent="0" />
        <mxCell id="cXflRYodfnQ1DScUz4Ab-10" style="edgeStyle=orthogonalEdgeStyle;shape=connector;rounded=0;jumpStyle=gap;orthogonalLoop=1;jettySize=auto;html=1;exitX=1;exitY=0.5;exitDx=0;exitDy=0;shadow=0;strokeColor=#E8D800;strokeWidth=2;align=center;verticalAlign=middle;fontFamily=Helvetica;fontSize=11;fontColor=default;labelBackgroundColor=default;startArrow=halfCircle;startFill=0;startSize=2;endArrow=halfCircle;endFill=0;endSize=2;flowAnimation=0;entryX=0;entryY=0.5;entryDx=0;entryDy=0;" edge="1" parent="1" source="cXflRYodfnQ1DScUz4Ab-6" target="cXflRYodfnQ1DScUz4Ab-15">
          <mxGeometry relative="1" as="geometry">
            <mxPoint x="250" y="45.170212765957444" as="targetPoint" />
          </mxGeometry>
        </mxCell>
        <mxCell id="cXflRYodfnQ1DScUz4Ab-6" value="ISP" style="shape=image;verticalLabelPosition=bottom;labelBackgroundColor=default;verticalAlign=top;aspect=fixed;imageAspect=0;image=https://www.superloop.com/images/header/logoColor.svg;" vertex="1" parent="1">
          <mxGeometry x="40" y="20" width="170.83" height="50" as="geometry" />
        </mxCell>
        <mxCell id="cXflRYodfnQ1DScUz4Ab-9" value="" style="endArrow=halfCircle;html=1;rounded=0;edgeStyle=orthogonalEdgeStyle;strokeWidth=2;jumpStyle=gap;flowAnimation=0;shadow=0;endFill=0;endSize=2;startArrow=none;startFill=0;startSize=2;entryX=0;entryY=0.5;entryDx=0;entryDy=0;sourcePerimeterSpacing=0;fillColor=#0050ef;strokeColor=#E8D800;" edge="1" parent="1" target="cXflRYodfnQ1DScUz4Ab-6">
          <mxGeometry width="50" height="50" relative="1" as="geometry">
            <mxPoint x="10" y="45" as="sourcePoint" />
            <mxPoint x="70" y="40" as="targetPoint" />
            <Array as="points">
              <mxPoint x="10" y="45" />
            </Array>
          </mxGeometry>
        </mxCell>
        <mxCell id="cXflRYodfnQ1DScUz4Ab-12" value="" style="rounded=1;whiteSpace=wrap;html=1;fontFamily=Helvetica;fontSize=11;fontColor=default;labelBackgroundColor=default;absoluteArcSize=1;strokeColor=#8A8A8A;fillColor=#E8E8E8;" vertex="1" parent="1">
          <mxGeometry x="320" y="10" width="120" height="130" as="geometry" />
        </mxCell>
        <mxCell id="cXflRYodfnQ1DScUz4Ab-15" value="&lt;div align=&quot;left&quot;&gt;WAN&lt;/div&gt;" style="rounded=1;whiteSpace=wrap;html=1;fontFamily=Helvetica;fontSize=11;fontColor=default;labelBackgroundColor=none;absoluteArcSize=1;strokeColor=#BDA95E;fillColor=#E8D071;align=left;textDirection=vertical-lr;textOpacity=40;" vertex="1" parent="1">
          <mxGeometry x="300" y="25" width="120" height="40" as="geometry" />
        </mxCell>
        <mxCell id="cXflRYodfnQ1DScUz4Ab-17" value="&lt;div align=&quot;left&quot;&gt;LAN&lt;/div&gt;" style="rounded=1;whiteSpace=wrap;html=1;fontFamily=Helvetica;fontSize=11;fontColor=default;labelBackgroundColor=none;absoluteArcSize=1;strokeColor=#677AA1;fillColor=#96B1E8;align=left;textDirection=vertical-lr;textOpacity=40;gradientColor=none;" vertex="1" parent="1">
          <mxGeometry x="300" y="80" width="120" height="40" as="geometry" />
        </mxCell>
      </root>
    </mxGraphModel>
  </diagram>
</mxfile>
